<svg width="78" height="78" viewBox="0 0 78 78" fill="none" xmlns="http://www.w3.org/2000/svg">
<g clip-path="url(#clip0_335_283)">
<path fill-rule="evenodd" clip-rule="evenodd" d="M6.26609 -0.0910979H4.65503V-0.0178895H4.28893V0.0553776H3.99598V0.128586H3.7763V0.201795H3.48334V0.275062H3.41019V0.348271H3.19051V0.421479H2.97082V0.494746H2.89756V0.567955H2.75114V0.641164H2.60461V0.714431H2.53146V0.787639H2.38492V0.860848H2.31177V0.934115H2.2385V1.00732H2.09209V1.08053H2.01882V1.1538H1.94555V1.22701H1.8724V1.30022H1.72587V1.37348H1.65272V1.44669H1.57945V1.5199H1.50618V1.59317H1.35977V1.66638H1.2865V1.81285H1.21335V1.88606H1.06682V2.03254H0.993666V2.10575H0.920399V2.17895H0.847131V2.25222H0.773982V2.39864H0.700715V2.47191H0.627448V2.54511H0.554297V2.69159H0.48103V2.7648H0.407763V2.91127H0.334613V3.05769H0.261346V3.20417H0.188079V3.35064H0.114929V3.57033H0.0416617V3.71674H-0.0316058V3.86322H-0.104755V4.00964H-0.178023V4.22932H-0.25129V11.1128H-0.104755V11.0395H41.3423V11.1128H43.6123V11.186H44.784V11.2592H45.5163V11.3325H46.1021V11.4057H46.5415V11.4789H46.9808V11.5522H47.3469V11.6254H47.7132V11.6986H48.1525V11.7719H48.3722V11.8451H48.7383V11.9183H48.958V11.9915H49.1777V12.0647H49.4706V12.138H49.6903V12.2112H49.9832V12.2844H50.1297V12.3576H50.4225V12.4309H50.6422V12.5041H50.8619V12.5773H51.0084V12.6506H51.2281V12.7238H51.3745V12.797H51.5942V12.8703H51.7406V12.9435H51.8872V13.0167H52.1068V13.09H52.2533V13.1632H52.3997V13.2364H52.5462V13.3096H52.7659V13.3829H52.9123V13.4561H53.0587V13.5293H53.2053V13.6025H53.3517V13.6757H53.4981V13.749H53.5714V13.8222H53.7178V13.8954H53.8643V13.9687H54.0107V14.0419H54.1572V14.1151H54.2304V14.1884H54.3768V14.2616H54.4501V14.3348H54.5965V14.4081H54.6698V14.4813H54.8162V14.5545H54.8895V14.6278H55.0359V14.701H55.1092V14.7742H55.1824V14.8474H55.3288V14.9206H55.4021V14.9939H55.4753V15.0671H55.6218V15.1403H55.6949V15.2135H55.7682V15.2868H55.9146V15.36H55.9879V15.4332H56.0612V15.5065H56.1343V15.5797H56.2076V15.6529H56.354V15.7262H56.4273V15.7994H56.5005V15.8726H56.5737V15.9458H56.6469V16.0191H56.7202V16.0923H56.7934V16.1655H56.8666V16.2388H56.9399V16.312H57.0131V16.3852H57.0863V16.4584H57.1596V16.5316H57.306V16.6049H57.3793V16.7513H57.4524V16.8245H57.5257V16.8978H57.5989V16.971H57.6721V17.0442H57.7454V17.1175H57.8186V17.1907H57.8918V17.2639H57.9651V17.3372H58.0383V17.4836H58.1115V17.5569H58.1847V17.6301H58.258V17.7033H58.3312V17.8498H58.4044V17.923H58.4777V17.9962H58.5508V18.1426H58.6241V18.2159H58.6974V18.2891H58.7705V18.4356H58.8438V18.5088H58.9171V18.6553H58.9902V18.7285H59.0635V18.8017H59.1367V18.9482H59.2099V19.0946H59.2832V19.1679H59.3564V19.3143H59.4296V19.3875H59.5028V19.534H59.5761V19.6804H59.6493V19.8269H59.7225V19.9734H59.7958V20.1198H59.8689V20.2663H59.9422V20.4128H60.0155V20.5592H60.0886V20.7056H60.1619V20.9253H60.2352V21.145H60.3083V21.2915H60.3816V21.5112H60.4547V21.7309H60.528V21.8773H60.6013V22.1702H60.6744V22.3166H60.7477V22.6095H60.8209V22.9025H60.8941V23.1954H60.9674V23.4883H61.0406V23.8544H61.1138V24.0741H61.1871V24.367H61.2603V24.9529H61.3335V25.2458H61.4067V25.8316H61.48V26.3442H61.5532V27.0032H61.6264V29.0537H61.5532V29.7127H61.48V30.2253H61.4067V30.5182H61.3335V30.8843H61.2603V31.104H61.1871V31.3969H61.1138V31.6899H61.0406V31.9095H60.9674V32.1292H60.8941V32.3489H60.8209V32.5686H60.7477V32.7883H60.6744V32.9347H60.6013V33.0812H60.528V33.2277H60.4547V33.4473H60.3816V33.5938H60.3083V33.7402H60.2352V33.8867H60.1619V34.0331H60.0886V34.1064H60.0155V34.2528H59.9422V34.3993H59.8689V34.4725H59.7958V34.619H59.7225V34.7654H59.6493V34.8387H59.5761V34.9851H59.5028V35.0583H59.4296V35.1315H59.3564V35.278H59.2832V35.3512H59.2099V35.4245H59.1367V35.5709H59.0635V35.6442H58.9902V35.7174H58.9171V35.7906H58.8438V35.9371H58.7705V36.0103H58.6974V36.0836H58.6241V36.23H58.5508V36.3032H58.4777V36.3764H58.4044V36.4497H58.3312V36.5229H58.258V36.5961H58.1847V36.6693H58.1115V36.7426H57.9651V36.8158H57.8918V36.889H57.8186V36.9623H57.7454V37.0355H57.6721V37.1087H57.5989V37.182H57.5257V37.2552H57.4524V37.3284H57.306V37.4017H57.2327V37.4749H57.1596V37.5481H57.0863V37.6213H57.0131V37.6945H56.9399V37.9142H57.0863V37.9874H57.1596V38.0607H57.2327V38.1339H57.306V38.2071H57.4524V38.2804H57.5257V38.3536H57.5989V38.4268H57.6721V38.5001H57.8186V38.5733H57.8918V38.6465H57.9651V38.7198H58.0383V38.793H58.1847V38.8662H58.258V39.0127H58.4044V39.0859H58.4777V39.1591H58.5508V39.2323H58.6241V39.3055H58.6974V39.3788H58.7705V39.452H58.8438V39.5252H58.9171V39.5985H58.9902V39.6717H59.0635V39.7449H59.1367V39.8182H59.2099V39.9646H59.2832V40.0379H59.3564V40.1111H59.4296V40.1843H59.5028V40.2576H59.5761V40.3308H59.6493V40.4772H59.7225V40.5504H59.7958V40.6237H59.8689V40.7701H59.9422V40.8433H60.0155V40.9166H60.0886V40.9898H60.1619V41.063H60.2352V41.2094H60.3083V41.2827H60.3816V41.4291H60.4547V41.5024H60.528V41.6488H60.6013V41.7221H60.6744V41.8685H60.7477V42.015H60.8209V42.0882H60.8941V42.2347H60.9674V42.3811H61.0406V42.5275H61.1138V42.6008H61.1871V42.7472H61.2603V42.8938H61.3335V43.0402H61.4067V43.1134H61.48V43.2599H61.5532V43.4063H61.6264V43.5528H61.6997V43.6992H61.7728V43.8457H61.8461V44.0653H61.9194V44.2119H61.9925V44.3583H62.0658V44.578H62.1391V44.7244H62.2122V44.9441H62.2855V45.1638H62.3587V45.3834H62.4319V45.53H62.5052V45.8228H62.5784V46.0425H62.6516V46.3354H62.7248V46.5551H62.7981V46.7748H62.8713V47.1409H62.9445V47.5803H63.0178V48.0197H63.0909V48.2393H63.1642V48.8984H63.2375V51.0221H63.1642V51.5346H63.0909V52.3402H63.0178V52.7796H62.9445V53.2189H62.8713V53.6583H62.7981V53.9511H62.7248V54.2441H62.6516V54.537H62.5784V54.8299H62.5052V55.0496H62.4319V55.3425H62.3587V55.5622H62.2855V55.7819H62.2122V56.0016H62.1391V56.2212H62.0658V56.3677H61.9925V56.5873H61.9194V56.807H61.8461V56.9536H61.7728V57.1H61.6997V57.2464H61.6264V57.3929H61.5532V57.5393H61.48V57.6858H61.4067V57.8323H61.3335V57.9787H61.2603V58.1251H61.1871V58.1984H61.1138V58.3448H61.0406V58.4914H60.9674V58.6378H60.8941V58.711H60.8209V58.8575H60.7477V59.0039H60.6744V59.0771H60.6013V59.1504H60.528V59.2968H60.4547V59.3701H60.3816V59.5165H60.3083V59.5898H60.2352V59.7362H60.1619V59.8095H60.0886V59.8826H60.0155V60.0291H59.9422V60.1023H59.8689V60.1756H59.7958V60.2488H59.7225V60.3952H59.6493V60.4685H59.5761V60.5417H59.5028V60.6149H59.4296V60.6882H59.3564V60.7613H59.2832V60.8346H59.2099V60.9079H59.1367V61.0543H59.0635V61.1276H58.9902V61.2007H58.9171V61.274H58.8438V61.3472H58.7705V61.4204H58.6974V61.4937H58.6241V61.5669H58.5508V61.6401H58.4044V61.7134H58.3312V61.7866H58.258V61.8598H58.1847V61.933H58.1115V62.0063H58.0383V62.0795H57.9651V62.1527H57.8918V62.2259H57.7454V62.2991H57.6721V62.3724H57.5989V62.4456H57.5257V62.5188H57.3793V62.5921H57.306V62.6652H57.2327V62.7385H57.0863V62.8118H57.0131V62.8849H56.9399V62.9582H56.7934V63.0315H56.7202V63.1046H56.5737V63.1779H56.5005V63.2511H56.4273V63.3243H56.2808V63.3976H56.2076V63.4708H56.0612V63.544H55.9879V63.6172H55.8415V63.6905H55.6949V63.7637H55.6218V63.8369H55.4753V63.9102H55.3288V63.9833H55.1824V64.0566H55.0359V64.1299H54.8895V64.203H54.7431V64.2763H54.5965V64.3496H54.4501V64.4227H54.2304V64.496H54.084V64.5693H53.9375V64.6424H53.7178V64.7157H53.5714V64.7889H53.3517V64.8621H53.132V64.9354H52.9123V65.0086H52.7659V65.0818H52.5462V65.155H52.3265V65.2283H52.1068V65.3015H51.8872V65.3747H51.6675V65.448H51.4478V65.5211H51.2281V65.5944H50.9352V65.6677H50.6422V65.7408H50.2761V65.8141H50.0564V65.8874H49.7635V65.9605H49.4706V66.0338H49.1777V66.107H48.8847V66.1802H48.3722V66.2535H48.006V66.3267H47.3469V66.3999H46.8344V66.4731H46.3951V66.5464H45.8824V66.6196H45.0769V66.6928H44.1249V66.7661H42.7336V66.8392H37.7541V66.7661H37.6808V66.6196H37.7541V53.878H38.6328V53.9511H42.2942V53.878H43.6856V53.8047H44.0517V53.7315H44.3446V53.6583H44.784V53.585H45.0769V53.5118H45.2966V53.4386H45.5163V53.3653H45.736V53.2921H46.0288V53.2189H46.2485V53.1457H46.4682V53.0724H46.6147V52.9992H46.7612V52.926H46.9076V52.8527H46.9808V52.7796H47.1273V52.7063H47.2005V52.633H47.3469V52.5599H47.4202V52.4866H47.5666V52.4133H47.6399V52.3402H47.7132V52.2669H47.7863V52.1937H47.8596V52.1205H47.9328V52.0472H48.006V51.974H48.0793V51.9008H48.1525V51.8276H48.2257V51.7543H48.2989V51.6811H48.3722V51.6079H48.4454V51.4615H48.5186V51.3882H48.5919V51.2418H48.665V51.1685H48.7383V51.0952H48.8116V50.9488H48.8847V50.8024H48.958V50.6559H49.0313V50.2898H49.1044V50.1433H49.1777V49.7771H49.2509V48.3859H49.1777V48.0929H49.1044V47.8H49.0313V47.5071H48.958V47.2875H48.8847V47.1409H48.8116V46.9945H48.7383V46.8481H48.665V46.7015H48.5919V46.6284H48.5186V46.5551H48.4454V46.4087H48.3722V46.3354H48.2989V46.2622H48.2257V46.189H48.1525V46.1158H48.0793V45.9693H47.9328V45.8961H47.8596V45.8228H47.7863V45.7497H47.7132V45.6764H47.6399V45.6031H47.5666V45.53H47.4202V45.4567H47.3469V45.3834H47.2005V45.3103H47.1273V45.237H46.9808V45.1638H46.8344V45.0906H46.6879V45.0173H46.4682V44.9441H46.2485V44.8709H46.1021V44.7977H45.6627V44.7244H45.2966V44.6512H44.9304V44.578H44.2714V44.5047H43.6123V44.4316H27.8683V66.7661H27.795V66.8392H14.1015V66.7661H14.0282V31.9095H41.562V31.8363H43.3926V31.7631H43.7588V31.6899H44.491V31.6166H44.8573V31.5434H45.0769V31.4702H45.2966V31.3969H45.5895V31.3237H45.736V31.2505H45.8824V31.1772H46.0288V31.104H46.1754V31.0308H46.3218V30.9575H46.4682V30.8843H46.5415V30.8111H46.6879V30.7379H46.7612V30.6647H46.8344V30.5914H46.9076V30.5182H46.9808V30.445H47.0541V30.3718H47.1273V30.2985H47.2005V30.2253H47.2738V30.0788H47.3469V29.9324H47.4202V29.7859H47.4935V29.5662H47.5666V29.2733H47.6399V29.0537H47.7132V27.4426H47.6399V26.8568H47.5666V26.6371H47.4935V26.3442H47.4202V26.0513H47.3469V25.9048H47.2738V25.7584H47.2005V25.6119H47.1273V25.4654H47.0541V25.3922H46.9808V25.319H46.9076V25.1725H46.8344V25.0993H46.7612V25.0261H46.6879V24.9529H46.6147V24.8797H46.4682V24.8064H46.3951V24.7332H46.3218V24.66H46.1754V24.5867H46.0288V24.5135H45.8824V24.4403H45.736V24.367H45.5163V24.2938H45.2966V24.2206H45.0037V24.1473H44.7107V24.0741H44.3446V24.0009H43.6856V23.9276H43.0265V23.8544H-0.25129V72.551H-0.32444V73.503H-0.25129V73.5763H-0.178023V73.7227H-0.104755V73.9424H-0.0316058V74.0888H0.0416617V74.3085H0.114929V74.455H0.188079V74.6015H0.261346V74.7479H0.334613V74.8211H0.407763V74.9676H0.48103V75.0408H0.554297V75.1872H0.627448V75.2605H0.700715V75.4069H0.773982V75.4802H0.847131V75.6266H0.920399V75.6999H0.993666V75.8463H1.06682V75.9196H1.14008V75.9928H1.21335V76.066H1.2865V76.1393H1.35977V76.2125H1.43303V76.2857H1.50618V76.3589H1.57945V76.4322H1.65272V76.5053H1.79914V76.5786H1.8724V76.6519H1.94555V76.725H2.01882V76.7983H2.16524V76.8716H2.2385V76.9447H2.38492V77.018H2.53146V77.0913H2.67787V77.1644H2.82429V77.2377H2.97082V77.3109H3.11724V77.3841H3.26366V77.4574H3.41019V77.5306H3.62988V77.6038H3.7763V77.677H3.99598V77.7503H4.1424V77.8235H4.36208V77.8967H4.65503V77.97H5.02113V78.0431H5.38735V78.1164H70.9996V78.0431H71.8783V77.97H72.2445V77.8967H72.6839V77.8235H72.9036V77.7503H73.1964V77.677H73.4161V77.6038H73.7091V77.5306H73.8555V77.4574H74.002V77.3841H74.2217V77.3109H74.3681V77.2377H74.5145V77.1644H74.5878V77.0913H74.7342V77.018H74.8807V76.9447H74.9539V76.8716H75.1004V76.7983H75.1736V76.725H75.2468V76.6519H75.3201V76.5786H75.4665V76.5053H75.5398V76.4322H75.613V76.3589H75.6862V76.2857H75.7595V76.2125H75.8326V76.1393H75.9059V76.066H75.9792V75.9196H76.0523V75.8463H76.1256V75.7731H76.1989V75.6999H76.272V75.6266H76.3453V75.4802H76.4185V75.4069H76.4917V75.2605H76.565V75.1872H76.6382V75.0408H76.7114V74.9676H76.7846V74.8211H76.8579V74.6747H76.9311V74.5282H77.0043V74.3818H77.0776V74.2354H77.1507V74.0157H77.224V73.8691H77.2973V73.6495H77.3704V73.4298H77.4437V73.1369H77.517V71.9652H77.5901V6.42617H77.517V4.66869H77.4437V4.15611H77.3704V3.93643H77.2973V3.86322H77.224V3.71674H77.1507V3.57033H77.0776V3.35064H77.0043V3.20417H76.9311V3.13096H76.8579V2.91127H76.7846V2.83801H76.7114V2.69159H76.6382V2.61832H76.565V2.47191H76.4917V2.32543H76.4185V2.17895H76.3453V2.10575H76.272V2.03254H76.1989V1.95927H76.1256V1.88606H76.0523V1.81285H75.9792V1.73959H75.9059V1.66638H75.8326V1.59317H75.7595V1.5199H75.6862V1.44669H75.613V1.37348H75.5398V1.30022H75.4665V1.22701H75.3933V1.1538H75.3201V1.08053H75.1736V1.00732H75.1004V0.934115H75.0272V0.860848H74.8807V0.787639H74.8075V0.714431H74.6611V0.641164H74.5145V0.567955H74.4414V0.494746H74.2948V0.421479H74.0752V0.348271H73.9287V0.275062H73.7091V0.201795H73.4161V0.128586H73.1233V0.0553776H72.9036V-0.0178895H72.6106V-0.0910979H71.7319V-0.164307H6.26609V-0.0910979Z" fill="white"/>
</g>
<defs>
<clipPath id="clip0_335_283">
<rect width="78" height="78" fill="white"/>
</clipPath>
</defs>
</svg>
