<svg width="36" height="36" viewBox="0 0 36 36" fill="none" xmlns="http://www.w3.org/2000/svg">
<g clip-path="url(#clip0_1359_3322)">
<path d="M33.48 0H2.52C1.12824 0 0 1.12824 0 2.52V33.48C0 34.8718 1.12824 36 2.52 36H33.48C34.8718 36 36 34.8718 36 33.48V2.52C36 1.12824 34.8718 0 33.48 0Z" fill="#008031"/>
<path fill-rule="evenodd" clip-rule="evenodd" d="M30.9904 8.03179C29.6442 6.65607 27.4624 6.65607 26.1162 8.03179L13.9297 20.4555L10.8838 17.3496C9.53758 15.9823 7.35497 15.9823 6.00963 17.3496C4.66345 18.7253 4.66345 20.9535 6.00963 22.3208L11.4931 27.9165C12.8393 29.2922 15.021 29.2922 16.3672 27.9165L30.9904 13.003C32.3365 11.6272 32.3365 9.39907 30.9904 8.03179Z" fill="white"/>
</g>
<defs>
<clipPath id="clip0_1359_3322">
<rect width="36" height="36" fill="white"/>
</clipPath>
</defs>
</svg>
