<svg width="53" height="51" viewBox="0 0 53 51" fill="none" xmlns="http://www.w3.org/2000/svg">
<g clip-path="url(#clip0_1110_342)">
<rect width="53" height="51" rx="25.5" fill="#00D251"/>
<path d="M32.2378 17.083L23.7366 26.8945L20.7606 23.4611C20.4823 23.1398 20.141 22.8744 19.7562 22.68C19.3713 22.4856 18.9505 22.3661 18.5176 22.3282C18.0847 22.2904 17.6484 22.3349 17.2334 22.4593C16.8184 22.5837 16.433 22.7856 16.0991 23.0533C15.7652 23.3211 15.4894 23.6495 15.2874 24.0198C15.0854 24.3901 14.9611 24.7951 14.9218 25.2116C14.8824 25.6282 14.9287 26.0481 15.058 26.4474C15.1873 26.8467 15.3971 27.2176 15.6753 27.5389L21.194 33.9139C21.5042 34.273 21.8927 34.5621 22.332 34.7606C22.7713 34.9591 23.2506 35.0622 23.7359 35.0625C24.2212 35.0628 24.7006 34.9603 25.1401 34.7624C25.5797 34.5644 25.9686 34.2758 26.2792 33.917L37.3231 21.167C37.6038 20.846 37.8158 20.4747 37.947 20.0746C38.0783 19.6745 38.1261 19.2534 38.0878 18.8355C38.0495 18.4175 37.9259 18.011 37.7239 17.6392C37.5219 17.2673 37.2456 16.9375 36.9109 16.6687C36.5761 16.3999 36.1895 16.1973 35.7732 16.0726C35.3569 15.9479 34.9191 15.9035 34.4849 15.942C34.0508 15.9805 33.6288 16.1011 33.2431 16.2969C32.8575 16.4927 32.5159 16.7599 32.2378 17.083Z" fill="white"/>
<path d="M26.5 0C21.2588 0 16.1353 1.49555 11.7774 4.29752C7.4195 7.0995 4.02293 11.0821 2.0172 15.7416C0.0114821 20.4011 -0.513306 25.5283 0.509202 30.4748C1.53171 35.4213 4.05559 39.965 7.76168 43.5312C11.4678 47.0975 16.1896 49.5261 21.3301 50.51C26.4706 51.4939 31.7989 50.989 36.6411 49.0589C41.4834 47.1289 45.6221 43.8605 48.534 39.667C51.4458 35.4736 53 30.5434 53 25.5C52.9925 18.7392 50.1982 12.2573 45.2301 7.47673C40.262 2.69611 33.526 0.00720002 26.5 0ZM26.5 44.625C22.5691 44.625 18.7265 43.5033 15.4581 41.4019C12.1896 39.3004 9.6422 36.3135 8.13791 32.8188C6.63361 29.3242 6.24002 25.4788 7.0069 21.7689C7.77379 18.059 9.66669 14.6513 12.4463 11.9766C15.2258 9.3019 18.7672 7.48042 22.6226 6.74248C26.478 6.00454 30.4742 6.38328 34.1058 7.8308C37.7375 9.27833 40.8416 11.7296 43.0255 14.8747C45.2094 18.0198 46.375 21.7174 46.375 25.5C46.3693 30.5706 44.2735 35.4319 40.5474 39.0173C36.8214 42.6027 31.7694 44.6195 26.5 44.625Z" fill="#00D251"/>
</g>
<defs>
<clipPath id="clip0_1110_342">
<rect width="53" height="51" rx="25.5" fill="white"/>
</clipPath>
</defs>
</svg>
