<svg width="36" height="36" viewBox="0 0 36 36" fill="none" xmlns="http://www.w3.org/2000/svg">
<g clip-path="url(#clip0_1147_333)">
<path d="M33.48 0H2.52C1.12824 0 0 1.12824 0 2.52V33.48C0 34.8718 1.12824 36 2.52 36H33.48C34.8718 36 36 34.8718 36 33.48V2.52C36 1.12824 34.8718 0 33.48 0Z" fill="#D60000"/>
<path d="M21.3636 18.0009L27.0786 23.7159C27.4498 24.0872 27.4498 24.69 27.0786 25.0612L25.062 27.0778C24.6908 27.449 24.0889 27.449 23.7167 27.0778L18.0008 21.3628L12.2848 27.0778C11.9136 27.449 11.3117 27.449 10.9405 27.0778L8.92297 25.0612C8.55172 24.69 8.55172 24.0881 8.92297 23.7159L14.6389 18.0009L8.92297 12.285C8.55172 11.9137 8.55172 11.3109 8.92297 10.9397L10.9414 8.92309C11.3127 8.55184 11.9145 8.55184 12.2858 8.92309L18.0008 14.639L23.7167 8.92309C24.088 8.55184 24.6898 8.55184 25.062 8.92309L27.0786 10.9406C27.4498 11.3118 27.4498 11.9137 27.0786 12.2859L21.3636 18.0009Z" fill="white" stroke="white" stroke-width="1.66667"/>
</g>
<defs>
<clipPath id="clip0_1147_333">
<rect width="36" height="36" fill="white"/>
</clipPath>
</defs>
</svg>
