<svg width="36" height="36" viewBox="0 0 36 36" fill="none" xmlns="http://www.w3.org/2000/svg">
<g clip-path="url(#clip0_1147_319)">
<path d="M34.2 0H1.8C0.805887 0 0 0.805887 0 1.8V34.2C0 35.1941 0.805887 36 1.8 36H34.2C35.1941 36 36 35.1941 36 34.2V1.8C36 0.805887 35.1941 0 34.2 0Z" fill="#7ED0EC"/>
<path d="M24.8175 21.4092V24.8182C24.8175 25.2703 24.6379 25.7039 24.3182 26.0235C23.9986 26.3432 23.565 26.5228 23.1129 26.5228H11.1811C10.729 26.5228 10.2955 26.3432 9.97581 26.0235C9.65615 25.7039 9.47656 25.2703 9.47656 24.8182V12.8864C9.47656 12.4344 9.65615 12.0008 9.97581 11.6811C10.2955 11.3615 10.729 11.1819 11.1811 11.1819H14.5902" stroke="white" stroke-width="3.0303" stroke-linecap="round" stroke-linejoin="round"/>
<path d="M18.4251 21.2387L26.5217 13.0568L22.9421 9.47729L14.8455 17.5739L14.5898 21.4091L18.4251 21.2387Z" stroke="white" stroke-width="3.0303" stroke-linecap="round" stroke-linejoin="round"/>
</g>
<defs>
<clipPath id="clip0_1147_319">
<rect width="36" height="36" fill="white"/>
</clipPath>
</defs>
</svg>
