<svg width="45" height="45" viewBox="0 0 45 45" fill="none" xmlns="http://www.w3.org/2000/svg">
<g clip-path="url(#clip0_93_38)">
<path d="M42.1875 0H2.8125C1.25789 0 0 1.25789 0 2.8125V14.0625C0 15.6171 1.25789 16.875 2.8125 16.875V42.1875C2.8125 43.7421 4.07039 45 5.625 45H39.375C40.9296 45 42.1875 43.7421 42.1875 42.1875V16.875C43.7421 16.875 45 15.6171 45 14.0625V2.8125C45 1.25789 43.7421 0 42.1875 0ZM5.625 5.625H39.375V11.25H5.625V5.625ZM36.5625 39.375H8.4375V16.875H36.5625V39.375Z" fill="#D9D9D9"/>
<path d="M16.875 28.125H28.125C29.6796 28.125 30.9375 26.8671 30.9375 25.3125C30.9375 23.7579 29.6796 22.5 28.125 22.5H16.875C15.3204 22.5 14.0625 23.7579 14.0625 25.3125C14.0625 26.8671 15.3204 28.125 16.875 28.125Z" fill="#D9D9D9"/>
</g>
<defs>
<clipPath id="clip0_93_38">
<rect width="45" height="45" fill="white"/>
</clipPath>
</defs>
</svg>
