<svg width="46" height="45" viewBox="0 0 46 45" fill="none" xmlns="http://www.w3.org/2000/svg">
<path fill-rule="evenodd" clip-rule="evenodd" d="M4.22485 3.75C3.18933 3.75 2.34985 4.58947 2.34985 5.625C2.34985 6.66052 3.18933 7.5 4.22485 7.5H5.11062C5.95615 7.5 6.69708 8.06591 6.91955 8.88165L7.70002 11.7434L11.7249 26.5011V30C11.7249 31.3003 12.1661 32.4977 12.907 33.4504C12.1716 34.278 11.7249 35.3681 11.7249 36.5625C11.7249 39.1513 13.8235 41.25 16.4124 41.25C19.0012 41.25 21.0999 39.1513 21.0999 36.5625C21.0999 36.2415 21.0676 35.928 21.0061 35.625H26.8186C26.7571 35.928 26.7249 36.2415 26.7249 36.5625C26.7249 39.1513 28.8235 41.25 31.4124 41.25C34.0012 41.25 36.0999 39.1513 36.0999 36.5625C36.0999 35.9466 35.981 35.3584 35.7652 34.8195C35.9761 34.5161 36.0999 34.1475 36.0999 33.75C36.0999 32.7144 35.2604 31.875 34.2248 31.875H31.4124H17.3499C16.3143 31.875 15.4749 31.0356 15.4749 30V28.125H34.6674C36.3588 28.125 37.8408 26.9929 38.2855 25.3609L41.3512 14.1109C42.001 11.7256 40.2054 9.375 37.733 9.375H10.9411L10.5374 7.89497C9.86999 5.44776 7.64722 3.75 5.11062 3.75H4.22485ZM31.4124 35.625C30.8947 35.625 30.4749 36.0448 30.4749 36.5625C30.4749 37.0802 30.8947 37.5 31.4124 37.5C31.93 37.5 32.3499 37.0802 32.3499 36.5625C32.3499 36.0448 31.93 35.625 31.4124 35.625ZM34.6674 24.375H15.032L11.9638 13.125H37.733L34.6674 24.375ZM16.4124 35.625C15.8946 35.625 15.4749 36.0448 15.4749 36.5625C15.4749 37.0802 15.8946 37.5 16.4124 37.5C16.9301 37.5 17.3499 37.0802 17.3499 36.5625C17.3499 36.0448 16.9301 35.625 16.4124 35.625Z" fill="#D9D9D9"/>
</svg>
