<svg width="24" height="24" viewBox="0 0 24 24" fill="none" xmlns="http://www.w3.org/2000/svg">
<g filter="url(#filter0_d_539_111)">
<path fill-rule="evenodd" clip-rule="evenodd" d="M13.1765 11.3774V1.34509C13.1765 0.692726 12.6495 0.150085 12.0001 0.150085C11.3459 0.150085 10.8236 0.685571 10.8236 1.34509V11.3774L9.49653 10.0321C9.04712 9.57651 8.30006 9.57413 7.84006 10.0404C7.37771 10.5091 7.37771 11.2581 7.83182 11.7196L11.1742 15.1079C11.3977 15.3345 11.6942 15.4489 11.993 15.4489C12.3001 15.4525 12.5965 15.3368 12.8224 15.1079L16.1648 11.7196C16.6142 11.2641 16.6165 10.5068 16.1565 10.0404C15.6942 9.57174 14.9554 9.57174 14.5001 10.0321L13.173 11.3774H13.1765ZM8.47064 1.3427H3.75653C1.82712 1.3427 0.235352 2.9408 0.235352 4.9122V20.4341C0.235352 22.39 1.81182 24.0036 3.75653 24.0036H20.2448C22.1742 24.0036 23.7659 22.4055 23.7659 20.4341V4.9122C23.7659 2.95631 22.1895 1.3427 20.2448 1.3427H15.5306V3.72793H20.2448C20.8824 3.72793 21.413 4.26699 21.413 4.9122V20.4341C21.413 21.0805 20.8812 21.6183 20.2448 21.6183H3.75653C3.11888 21.6183 2.58829 21.0793 2.58829 20.4341V4.9122C2.58829 4.2658 3.12006 3.72793 3.75653 3.72793H8.47064V1.3427Z" fill="white"/>
</g>
<defs>
<filter id="filter0_d_539_111" x="-266.431" y="-253.183" width="556.864" height="557.187" filterUnits="userSpaceOnUse" color-interpolation-filters="sRGB">
<feFlood flood-opacity="0" result="BackgroundImageFix"/>
<feColorMatrix in="SourceAlpha" type="matrix" values="0 0 0 0 0 0 0 0 0 0 0 0 0 0 0 0 0 0 127 0" result="hardAlpha"/>
<feOffset dy="13.3333"/>
<feGaussianBlur stdDeviation="133.333"/>
<feColorMatrix type="matrix" values="0 0 0 0 0 0 0 0 0 0 0 0 0 0 0 0 0 0 0.1 0"/>
<feBlend mode="normal" in2="BackgroundImageFix" result="effect1_dropShadow_539_111"/>
<feBlend mode="normal" in="SourceGraphic" in2="effect1_dropShadow_539_111" result="shape"/>
</filter>
</defs>
</svg>
