<svg width="46" height="45" viewBox="0 0 46 45" fill="none" xmlns="http://www.w3.org/2000/svg">
<g clip-path="url(#clip0_93_57)">
<path d="M10.7014 6.93243H43.666C44.264 6.93243 44.7214 7.38979 44.7214 7.98786V28.4984C44.7214 29.0964 44.264 29.5538 43.666 29.5538H10.7014C10.1033 29.5538 9.646 29.0964 9.646 28.4984V7.98786C9.646 7.38979 10.1033 6.93243 10.7014 6.93243Z" fill="#152039"/>
<path d="M43.666 30.2574H10.7014C9.71636 30.2574 8.94238 29.4834 8.94238 28.4984V7.98787C8.94238 7.0028 9.71636 6.22882 10.7014 6.22882H43.666C44.651 6.22882 45.425 7.0028 45.425 7.98787V28.4984C45.425 29.4482 44.651 30.2574 43.666 30.2574ZM10.7014 7.63606C10.4903 7.63606 10.3496 7.77678 10.3496 7.98787V28.4984C10.3496 28.7094 10.4903 28.8502 10.7014 28.8502H43.666C43.8771 28.8502 44.0178 28.7094 44.0178 28.4984V7.98787C44.0178 7.77678 43.8771 7.63606 43.666 7.63606H10.7014Z" fill="#D9D9D9"/>
<path d="M7.71107 9.92282H40.7108C41.3089 9.92282 41.7662 10.3802 41.7662 10.9782V31.4887C41.7662 32.0868 41.3089 32.5442 40.7108 32.5442H7.71107C7.11299 32.5442 6.65564 32.0868 6.65564 31.4887V10.9782C6.65564 10.3802 7.11299 9.92282 7.71107 9.92282Z" fill="#152039"/>
<path d="M40.6756 33.2478H7.71107C6.72601 33.2478 5.95203 32.4738 5.95203 31.4887V10.9782C5.95203 9.99317 6.72601 9.21919 7.71107 9.21919H40.7108C41.6959 9.21919 42.4698 9.99317 42.4698 10.9782V31.4887C42.4347 32.4386 41.6607 33.2478 40.6756 33.2478ZM7.71107 10.6264C7.49999 10.6264 7.35926 10.7672 7.35926 10.9782V31.4887C7.35926 31.6998 7.49999 31.8405 7.71107 31.8405H40.7108C40.9219 31.8405 41.0626 31.6998 41.0626 31.4887V10.9782C41.0626 10.7672 40.9219 10.6264 40.7108 10.6264H7.71107Z" fill="#D9D9D9"/>
<path d="M4.96693 12.8428H37.9666C38.5647 12.8428 39.0221 13.3002 39.0221 13.8983V34.4088C39.0221 35.0068 38.5647 35.4642 37.9666 35.4642H4.96693C4.36885 35.4642 3.9115 35.0068 3.9115 34.4088V13.8983C3.9115 13.3354 4.36885 12.8428 4.96693 12.8428Z" fill="#152039"/>
<path d="M37.9667 36.1678H4.96693C3.98187 36.1678 3.20789 35.3938 3.20789 34.4087V13.8983C3.20789 12.9132 3.98187 12.1392 4.96693 12.1392H37.9667C38.9517 12.1392 39.7257 12.9132 39.7257 13.8983V34.4087C39.7257 35.3586 38.9165 36.1678 37.9667 36.1678ZM4.96693 13.5464C4.75585 13.5464 4.61512 13.6872 4.61512 13.8983V34.4087C4.61512 34.6198 4.75585 34.7605 4.96693 34.7605H37.9667C38.1777 34.7605 38.3185 34.6198 38.3185 34.4087V13.8983C38.3185 13.6872 38.1777 13.5464 37.9667 13.5464H4.96693Z" fill="#D9D9D9"/>
<path d="M2.15247 15.4462H35.1522C35.7503 15.4462 36.2076 15.9036 36.2076 16.5017V37.0121C36.2076 37.6102 35.7503 38.0676 35.1522 38.0676H2.15247C1.5544 38.0676 1.09705 37.6102 1.09705 37.0121V16.5017C1.09705 15.9388 1.5544 15.4462 2.15247 15.4462Z" fill="#152039"/>
<path d="M35.1522 38.7712H2.15248C1.16741 38.7712 0.393433 37.9972 0.393433 37.0121V16.5016C0.393433 15.5166 1.16741 14.7426 2.15248 14.7426H35.1522C36.1373 14.7426 36.9112 15.5166 36.9112 16.5016V37.0121C36.9112 37.9972 36.1021 38.7712 35.1522 38.7712ZM2.15248 16.1498C1.94139 16.1498 1.80067 16.2906 1.80067 16.5016V37.0121C1.80067 37.2232 1.94139 37.3639 2.15248 37.3639H35.1522C35.3633 37.3639 35.504 37.2232 35.504 37.0121V16.5016C35.504 16.2906 35.3633 16.1498 35.1522 16.1498H2.15248Z" fill="#D9D9D9"/>
<path d="M30.7194 35.6049H6.58526C6.19827 35.6049 5.88164 35.2883 5.88164 34.9013C5.88164 33.6348 4.82621 32.5793 3.5597 32.5793C3.17271 32.5793 2.85608 32.2627 2.85608 31.8757V21.2511C2.85608 20.8641 3.17271 20.5475 3.5597 20.5475C4.82621 20.5475 5.88164 19.492 5.88164 18.2255C5.88164 17.8385 6.19827 17.5219 6.58526 17.5219H30.7194C31.1064 17.5219 31.423 17.8385 31.423 18.2255C31.423 19.492 32.4784 20.5475 33.7449 20.5475C34.1319 20.5475 34.4486 20.8641 34.4486 21.2511V31.8757C34.4486 32.2627 34.1319 32.5793 33.7449 32.5793C32.4784 32.5793 31.423 33.6348 31.423 34.9013C31.423 35.2883 31.1064 35.6049 30.7194 35.6049ZM7.21852 34.1977H30.0509C30.3324 32.7201 31.5286 31.5239 33.0062 31.2425V21.8843C31.5286 21.6029 30.3324 20.4067 30.0509 18.9291H7.21852C6.93707 20.4067 5.74092 21.6029 4.26332 21.8843V31.2073C5.74092 31.5239 6.93707 32.7201 7.21852 34.1977Z" fill="#D9D9D9"/>
<path d="M18.7227 31.348C17.5969 31.348 16.4007 30.9258 15.5564 29.8352C15.3101 29.5186 15.3805 29.0964 15.6619 28.8502C15.9786 28.6039 16.4007 28.6743 16.647 28.9557C17.4913 30.0463 18.793 30.0815 19.6374 29.8C20.341 29.5538 20.7632 29.0964 20.7632 28.6039C20.7632 28.1465 19.6726 27.8299 18.7227 27.5485C17.2451 27.0911 15.3805 26.5634 15.3805 24.8043C15.3805 23.96 15.9082 23.186 16.8229 22.7287C17.9487 22.1658 19.8485 21.9547 21.6427 23.2564C21.9593 23.5027 22.0297 23.9248 21.7834 24.2415C21.5372 24.5581 21.115 24.6284 20.7984 24.3822C19.6022 23.5027 18.2653 23.5378 17.4562 23.96C17.034 24.1711 16.7526 24.4877 16.7526 24.8043C16.7526 25.4728 17.7376 25.7894 19.0745 26.2116C20.5169 26.6338 22.1001 27.1263 22.1001 28.6039C22.1001 29.6945 21.2909 30.6796 20.0244 31.1369C19.6726 31.2425 19.18 31.348 18.7227 31.348Z" fill="#D9D9D9"/>
<path d="M18.6523 23.6786C18.2654 23.6786 17.9487 23.3619 17.9487 22.9749V21.427C17.9487 21.04 18.2654 20.7234 18.6523 20.7234C19.0393 20.7234 19.356 21.04 19.356 21.427V22.9749C19.356 23.3971 19.0393 23.6786 18.6523 23.6786Z" fill="#D9D9D9"/>
<path d="M18.6523 32.6849C18.2654 32.6849 17.9487 32.3683 17.9487 31.9813V30.8203C17.9487 30.4333 18.2654 30.1167 18.6523 30.1167C19.0393 30.1167 19.356 30.4333 19.356 30.8203V31.9813C19.356 32.3683 19.0393 32.6849 18.6523 32.6849Z" fill="#D9D9D9"/>
<path d="M9.47016 28.9557C8.37955 28.9557 7.46484 28.0762 7.46484 26.9504C7.46484 25.8246 8.34437 24.9451 9.47016 24.9451C10.5608 24.9451 11.4755 25.8246 11.4755 26.9504C11.4755 28.0762 10.5608 28.9557 9.47016 28.9557ZM9.47016 26.3875C9.15353 26.3875 8.87208 26.6338 8.87208 26.9856C8.87208 27.3374 9.11835 27.5836 9.47016 27.5836C9.78679 27.5836 10.0682 27.3374 10.0682 26.9856C10.0682 26.6338 9.78679 26.3875 9.47016 26.3875Z" fill="#D9D9D9"/>
<path d="M27.905 28.9557C26.8144 28.9557 25.8997 28.0762 25.8997 26.9504C25.8997 25.8246 26.7792 24.9451 27.905 24.9451C28.9956 24.9451 29.9103 25.8246 29.9103 26.9504C29.9103 28.0762 28.9956 28.9557 27.905 28.9557ZM27.905 26.3875C27.5883 26.3875 27.3069 26.6338 27.3069 26.9856C27.3069 27.3374 27.5532 27.5836 27.905 27.5836C28.2568 27.5836 28.503 27.3374 28.503 26.9856C28.503 26.6338 28.2216 26.3875 27.905 26.3875Z" fill="#D9D9D9"/>
</g>
<defs>
<clipPath id="clip0_93_57">
<rect width="45" height="45" fill="white" transform="translate(0.393433)"/>
</clipPath>
</defs>
</svg>
