<svg width="28" height="27" viewBox="0 0 28 27" fill="none" xmlns="http://www.w3.org/2000/svg">
<path d="M11.4288 1.62C6.34638 1.62 2.21655 5.73539 2.21655 10.8C2.21655 15.8646 6.34638 19.98 11.4288 19.98C13.4397 19.98 15.2982 19.3345 16.8138 18.2419L23.9431 25.3294L25.4672 23.8106L18.4226 16.7737C19.807 15.1664 20.641 13.0802 20.641 10.8C20.641 5.73539 16.5111 1.62 11.4288 1.62ZM11.4288 2.7C15.9248 2.7 19.5572 6.31968 19.5572 10.8C19.5572 15.2803 15.9248 18.9 11.4288 18.9C6.93273 18.9 3.30034 15.2803 3.30034 10.8C3.30034 6.31968 6.93273 2.7 11.4288 2.7Z" fill="black"/>
</svg>
