<svg width="50" height="50" viewBox="0 0 50 50" fill="none" xmlns="http://www.w3.org/2000/svg">
<path d="M37.5 25C37.5 31.9035 31.9035 37.5 25 37.5C18.0964 37.5 12.5 31.9035 12.5 25C12.5 18.0964 18.0964 12.5 25 12.5C31.9035 12.5 37.5 18.0964 37.5 25Z" fill="#D9D9D9"/>
<path fill-rule="evenodd" clip-rule="evenodd" d="M25 2.60413C25.8629 2.60413 26.5625 3.30369 26.5625 4.16663V6.24996C26.5625 7.1129 25.8629 7.81246 25 7.81246C24.137 7.81246 23.4375 7.1129 23.4375 6.24996V4.16663C23.4375 3.30369 24.137 2.60413 25 2.60413ZM9.16373 9.16373C9.77392 8.55354 10.7633 8.55354 11.3734 9.16373L12.1919 9.98215C12.802 10.5923 12.802 11.5816 12.1919 12.1919C11.5816 12.802 10.5923 12.802 9.98215 12.1919L9.16373 11.3734C8.55354 10.7633 8.55354 9.77392 9.16373 9.16373ZM40.8356 9.16427C41.4458 9.77446 41.4458 10.7638 40.8356 11.374L40.0173 12.1924C39.407 12.8026 38.4177 12.8026 37.8075 12.1924C37.1973 11.5822 37.1973 10.5929 37.8075 9.98269L38.626 9.16427C39.2362 8.55408 40.2254 8.55408 40.8356 9.16427ZM2.60413 25C2.60413 24.137 3.30369 23.4375 4.16663 23.4375H6.24996C7.1129 23.4375 7.81246 24.137 7.81246 25C7.81246 25.8629 7.1129 26.5625 6.24996 26.5625H4.16663C3.30369 26.5625 2.60413 25.8629 2.60413 25ZM42.1875 25C42.1875 24.137 42.887 23.4375 43.75 23.4375H45.8333C46.6962 23.4375 47.3958 24.137 47.3958 25C47.3958 25.8629 46.6962 26.5625 45.8333 26.5625H43.75C42.887 26.5625 42.1875 25.8629 42.1875 25ZM37.8075 37.8075C38.4177 37.1973 39.407 37.1973 40.0173 37.8075L40.8356 38.626C41.4458 39.2362 41.4458 40.2254 40.8356 40.8356C40.2254 41.4458 39.2362 41.4458 38.626 40.8356L37.8075 40.0173C37.1973 39.407 37.1973 38.4177 37.8075 37.8075ZM12.1919 37.8081C12.802 38.4183 12.802 39.4077 12.1919 40.0179L11.3734 40.8362C10.7633 41.4464 9.77392 41.4464 9.16373 40.8362C8.55354 40.226 8.55354 39.2366 9.16373 38.6264L9.98215 37.8081C10.5923 37.1979 11.5816 37.1979 12.1919 37.8081ZM25 42.1875C25.8629 42.1875 26.5625 42.887 26.5625 43.75V45.8333C26.5625 46.6962 25.8629 47.3958 25 47.3958C24.137 47.3958 23.4375 46.6962 23.4375 45.8333V43.75C23.4375 42.887 24.137 42.1875 25 42.1875Z" fill="#D9D9D9"/>
</svg>
