<svg width="46" height="45" viewBox="0 0 46 45" fill="none" xmlns="http://www.w3.org/2000/svg">
<g clip-path="url(#clip0_348_117)">
<path d="M41.2406 6.30005H18.9487C16.5481 6.30005 14.559 8.28917 14.559 10.6898V11.7873H12.2955C10.5121 11.7873 8.79737 12.6104 7.69993 14.0508L3.31014 19.7438C3.10437 20.0181 3.03578 20.2925 3.03578 20.6354V30.6496H2.2127C1.4582 30.6496 0.772301 31.1983 0.703711 31.9528C0.635121 32.8445 1.32102 33.5304 2.14411 33.5304H7.83711C8.52301 36.3426 10.9923 38.4003 14.0102 38.4003C17.0282 38.4003 19.4975 36.3426 20.1834 33.5304H28.4828C29.1687 36.3426 31.638 38.4003 34.6559 38.4003C37.6739 38.4003 40.1432 36.3426 40.8291 33.5304H44.2586C45.0817 33.5304 45.699 32.8445 45.699 32.09V10.6898C45.6304 8.22058 43.6413 6.30005 41.2406 6.30005ZM10.032 15.8341C10.5807 15.1482 11.4038 14.7367 12.2955 14.7367H14.559V19.1264H7.49415L10.032 15.8341ZM14.0102 35.5195C12.1583 35.5195 10.5807 34.0105 10.5807 32.09C10.5807 30.1695 12.0897 28.6605 14.0102 28.6605C15.9308 28.6605 17.4398 30.1695 17.4398 32.09C17.4398 34.0105 15.8622 35.5195 14.0102 35.5195ZM34.5873 35.5195C32.7354 35.5195 31.1578 34.0105 31.1578 32.09C31.1578 30.1695 32.6668 28.6605 34.5873 28.6605C36.5079 28.6605 38.0169 30.1695 38.0169 32.09C38.0169 34.0105 36.4393 35.5195 34.5873 35.5195ZM42.681 30.6496H40.7605C40.0746 27.8374 37.6053 25.7797 34.5873 25.7797C31.5694 25.7797 29.1001 27.8374 28.4142 30.6496H20.1834C19.4975 27.8374 17.0282 25.7797 14.0102 25.7797C10.9923 25.7797 8.52301 27.8374 7.83711 30.6496H5.98517V22.0072H15.9994C16.8224 22.0072 17.4398 21.3213 17.4398 20.5668V10.6898C17.4398 9.86675 18.0571 9.24943 18.8802 9.24943H41.172C41.9951 9.24943 42.6124 9.86675 42.6124 10.6898V30.6496H42.681Z" fill="#D9D9D9"/>
</g>
<defs>
<clipPath id="clip0_348_117">
<rect width="45" height="45" fill="white" transform="translate(0.698975)"/>
</clipPath>
</defs>
</svg>
