<svg width="46" height="45" viewBox="0 0 46 45" fill="none" xmlns="http://www.w3.org/2000/svg">
<path fill-rule="evenodd" clip-rule="evenodd" d="M15.0535 16.875C15.0535 12.7329 18.4113 9.375 22.5535 9.375C26.6955 9.375 30.0535 12.7329 30.0535 16.875C30.0535 21.0171 26.6955 24.375 22.5535 24.375C18.4113 24.375 15.0535 21.0171 15.0535 16.875ZM29.724 25.5441C32.2159 23.4806 33.8035 20.3632 33.8035 16.875C33.8035 10.6618 28.7667 5.625 22.5535 5.625C16.3403 5.625 11.3035 10.6618 11.3035 16.875C11.3035 20.3632 12.891 23.4806 15.3829 25.5441C9.39886 27.6486 5.67847 32.3389 5.67847 37.5C5.67847 38.5356 6.51794 39.375 7.55347 39.375C8.58899 39.375 9.42847 38.5356 9.42847 37.5C9.42847 33.2449 13.8447 28.125 22.5535 28.125C31.2623 28.125 35.6785 33.2449 35.6785 37.5C35.6785 38.5356 36.5179 39.375 37.5535 39.375C38.589 39.375 39.4285 38.5356 39.4285 37.5C39.4285 32.3389 35.7081 27.6486 29.724 25.5441Z" fill="#D9D9D9"/>
</svg>
