<svg width="39" height="39" viewBox="0 0 39 39" fill="none" xmlns="http://www.w3.org/2000/svg">
<path fill-rule="evenodd" clip-rule="evenodd" d="M24.375 9.75C24.375 10.6475 23.6475 11.375 22.75 11.375C21.8525 11.375 21.125 10.6475 21.125 9.75H4.875V12.9991C6.89163 14.5119 8.125 16.8992 8.125 19.5C8.125 22.1008 6.89163 24.4881 4.875 26.0009L4.875 29.25H21.125C21.125 28.3525 21.8525 27.625 22.75 27.625C23.6475 27.625 24.375 28.3525 24.375 29.25L34.125 29.25V26.0009C32.1084 24.4881 30.875 22.1008 30.875 19.5C30.875 16.8992 32.1084 14.5119 34.125 12.9991V9.75H24.375ZM37.375 29.25C37.375 31.0449 35.9199 32.5 34.125 32.5H4.875C3.08007 32.5 1.625 31.0449 1.625 29.25L1.625 24.1931L2.43632 23.7238C3.93433 22.8573 4.875 21.2614 4.875 19.5C4.875 17.7386 3.93433 16.1427 2.43632 15.2762L1.625 14.8069L1.625 9.75C1.625 7.95507 3.08007 6.5 4.875 6.5L34.125 6.5C35.9199 6.5 37.375 7.95507 37.375 9.75V14.8069L36.5637 15.2762C35.0657 16.1427 34.125 17.7386 34.125 19.5C34.125 21.2614 35.0657 22.8573 36.5637 23.7238L37.375 24.1931V29.25ZM22.75 26C21.8525 26 21.125 25.2725 21.125 24.375C21.125 23.4775 21.8525 22.75 22.75 22.75C23.6475 22.75 24.375 23.4775 24.375 24.375C24.375 25.2725 23.6475 26 22.75 26ZM22.75 21.125C21.8525 21.125 21.125 20.3975 21.125 19.5C21.125 18.6025 21.8525 17.875 22.75 17.875C23.6475 17.875 24.375 18.6025 24.375 19.5C24.375 20.3975 23.6475 21.125 22.75 21.125ZM22.75 16.25C21.8525 16.25 21.125 15.5225 21.125 14.625C21.125 13.7275 21.8525 13 22.75 13C23.6475 13 24.375 13.7275 24.375 14.625C24.375 15.5225 23.6475 16.25 22.75 16.25Z" fill="#ACACAC"/>
</svg>
