<svg width="40" height="40" viewBox="0 0 40 40" fill="none" xmlns="http://www.w3.org/2000/svg">
<path d="M39.1498 17.5L36.8748 10.8L21.5498 2.12499C21.0754 1.86234 20.542 1.72455 19.9998 1.72455C19.4575 1.72455 18.9242 1.86234 18.4498 2.12499L3.12477 10.8L0.84977 17.5C0.606415 18.1954 0.618692 18.9548 0.884402 19.6419C1.15011 20.3291 1.65188 20.8992 2.29977 21.25L3.12477 21.7V27.5C3.16071 28.0143 3.32333 28.5117 3.59813 28.9479C3.87294 29.3841 4.25139 29.7455 4.69977 30L18.4498 37.775C18.9242 38.0376 19.4575 38.1754 19.9998 38.1754C20.542 38.1754 21.0754 38.0376 21.5498 37.775L35.2998 30C35.7481 29.7455 36.1266 29.3841 36.4014 28.9479C36.6762 28.5117 36.8388 28.0143 36.8748 27.5V21.7L37.6998 21.25C38.3477 20.8992 38.8494 20.3291 39.1151 19.6419C39.3808 18.9548 39.3931 18.1954 39.1498 17.5ZM24.9998 24.675L23.7998 21.475L34.9998 15.325L36.0998 18.525L24.9998 24.675ZM19.9998 4.84999L33.6498 12.5L19.9998 20L6.34977 12.5L19.9998 4.84999ZM3.79977 18.525L4.99977 15.325L16.1998 21.475L14.9998 24.675L3.79977 18.525ZM6.29977 23.4L16.9248 29.2L18.4748 24.6V34.275L6.24977 27.5L6.29977 23.4ZM33.7498 27.5L21.5498 34.275V24.6L23.1248 29.2L33.7498 23.4V27.5Z" fill="#ACACAC" stroke="#ACACAC" stroke-width="0.00064"/>
</svg>
