<svg width="62" height="60" viewBox="0 0 62 60" fill="none" xmlns="http://www.w3.org/2000/svg">
<path d="M34.854 7.5C32.0176 7.5 29.3551 8.20312 26.9876 9.375H26.9271C26.7607 9.38965 21.7611 9.74854 16.6404 11.8945C14.0384 12.9858 11.3911 14.5312 9.31862 16.875C7.24614 19.2188 5.80902 22.3901 5.80902 26.25C5.80902 28.8208 6.7545 30.9009 8.16893 32.3438C9.58336 33.7866 11.3382 34.585 13.0098 35.0391C13.2064 35.0903 13.4182 35.1123 13.6149 35.1562C14.1973 42.8247 19.4087 43.1763 20.8761 43.125C21.2845 44.0552 21.7308 44.9341 22.2073 45.7617C25.2253 51.0352 29.7182 54.375 34.854 54.375C38.2653 54.375 41.4799 52.8589 44.0516 50.332C46.3812 48.0469 48.1738 44.8315 49.558 41.0156C53.2567 40.4517 56.1536 37.478 56.1536 33.75C56.1536 31.0254 54.4215 28.9014 52.16 27.5977C52.2205 26.543 52.281 25.5029 52.281 24.375C52.281 15.0806 44.4525 7.5 34.854 7.5ZM34.854 11.25C42.3648 11.25 48.4083 17.1021 48.4083 24.375C48.4083 25.7227 48.3705 27.0117 48.2873 28.3008L48.1663 29.7656L49.6185 30.2344C51.1767 30.7251 52.281 32.0728 52.281 33.75C52.281 35.8447 50.5716 37.5 48.4083 37.5C48.6579 37.5 48.6125 37.5146 48.2873 37.5L46.8351 37.3828L46.351 38.7891C45.0727 42.7295 43.2725 45.7837 41.2681 47.7539C39.2637 49.7241 37.1383 50.625 34.854 50.625C31.4352 50.625 28.1827 48.457 25.5959 43.9453C25.4522 43.689 25.3161 43.396 25.1723 43.125H29.045C29.045 43.125 34.854 42.8906 34.854 33.75C34.854 24.6094 30.9813 24.375 30.9813 24.375H27.1087C23.0167 24.375 24.0453 22.5879 21.4812 22.5C22.4191 16.1279 28.0088 11.25 34.854 11.25ZM20.8761 14.3555C18.9171 16.9116 17.6917 20.0171 17.4875 23.3789C16.0201 24.397 14.1443 26.5723 13.6754 31.3477C12.6089 31.0034 11.6256 30.4541 10.9524 29.7656C10.1885 28.9893 9.68168 28.0151 9.68168 26.25C9.68168 23.2397 10.665 21.0938 12.2231 19.3359C13.7813 17.5781 15.9748 16.2305 18.2136 15.293C19.1213 14.9121 20.0063 14.6191 20.8761 14.3555ZM28.0768 30C29.6804 30 30.9813 31.2598 30.9813 32.8125C30.9813 34.3652 29.6804 35.625 28.0768 35.625C26.4733 35.625 25.1723 34.3652 25.1723 32.8125C25.1723 31.2598 26.4733 30 28.0768 30ZM41.6312 30C40.0276 30 38.7267 31.2598 38.7267 32.8125C38.7267 34.3652 40.0276 35.625 41.6312 35.625C43.2347 35.625 44.5357 34.3652 44.5357 32.8125C44.5357 31.2598 43.2347 30 41.6312 30Z" fill="#D9D9D9"/>
</svg>
