<svg width="49" height="55" viewBox="0 0 49 55" fill="none" xmlns="http://www.w3.org/2000/svg">
<path d="M9.10938 12.085C8.64086 12.085 8.202 12.1857 7.78092 12.3334L12.2051 15.5225H36.3782L40.8024 12.3334C40.3813 12.1857 39.9425 12.085 39.474 12.085H9.10938ZM6.2449 13.2666C5.21891 14.2133 4.55469 15.6366 4.55469 17.2412V39.585C4.55469 42.4249 6.60074 44.7412 9.10938 44.7412H39.474C41.9826 44.7412 44.0286 42.4249 44.0286 39.585V17.2412C44.0286 15.6366 43.3644 14.2133 42.3384 13.2666L24.2917 26.2646L6.2449 13.2666ZM9.10938 21.3904L24.2917 32.334L39.474 21.3904V41.3037H9.10938V21.3904Z" fill="#D9D9D9"/>
</svg>
