<svg width="62" height="45" viewBox="0 0 62 45" fill="none" xmlns="http://www.w3.org/2000/svg">
<g clip-path="url(#clip0_92_6)">
<path fill-rule="evenodd" clip-rule="evenodd" d="M16.5447 7.39777e-07C14.2051 -2.42602e-05 12.274 -4.92483e-05 10.7019 0.114126C9.0687 0.232751 7.56846 0.487401 6.16313 1.12588C4.07482 2.07463 2.37209 3.56383 1.28731 5.39025C0.557287 6.61935 0.266124 7.93145 0.13049 9.35983C-6.46263e-05 10.7348 -3.31919e-05 12.4237 1.10962e-06 14.47V30C1.10962e-06 34.7845 3.84177 38.784 8.97451 39.768C10.0736 42.8015 13.3186 45 17.1508 45C20.8845 45 24.061 42.913 25.2382 40H40.5064C41.6835 42.913 44.8601 45 48.5938 45C52.6045 45 55.9721 42.592 56.9097 39.3388C60.2846 38.004 62.4545 34.8205 61.8579 31.3765L61.4589 29.0735C60.4313 23.142 57.8915 17.4887 54.0275 12.5321L53.5087 11.8666C51.3788 9.1346 47.8426 7.5 44.0617 7.5H40.0184C39.8738 7.5 39.7303 7.5047 39.5882 7.51395C39.405 6.77685 39.1355 6.07083 38.7313 5.39025C37.6465 3.56383 35.9437 2.07463 33.8553 1.12588C32.4501 0.487401 30.9497 0.232751 29.3167 0.114126C27.7445 -4.92483e-05 25.8133 -2.42602e-05 23.4737 7.39777e-07H16.5447ZM40.0184 14.2894C40.0184 14.3493 40.0184 14.4094 40.0184 14.4699V35H40.5064C41.6835 32.087 44.8601 30 48.5938 30C51.7067 30 54.4322 31.4507 55.9349 33.6213C56.1905 33.1772 56.2982 32.6607 56.2056 32.1255L55.8066 29.8225C54.9073 24.6325 52.6851 19.6858 49.3039 15.3488L48.7851 14.6833C47.7203 13.3173 45.952 12.5 44.0617 12.5H40.0184V14.2894ZM34.3015 14.575C34.3015 12.3975 34.2992 10.9172 34.1906 9.77363C34.0849 8.66005 33.8933 8.09158 33.6578 7.69513C33.1155 6.78193 32.264 6.03733 31.2198 5.56293C30.7668 5.357 30.1167 5.18945 28.8433 5.09698C27.5358 5.002 25.8433 5 23.3536 5H16.6648C14.175 5 12.4825 5.002 11.175 5.09698C9.90176 5.18945 9.25178 5.357 8.79848 5.56293C7.75435 6.03733 6.90298 6.78193 6.36056 7.69513C6.12511 8.09158 5.93354 8.66005 5.8278 9.77363C5.71921 10.9172 5.71692 12.3975 5.71692 14.575V30C5.71692 32.079 7.16785 33.8618 9.2324 34.6157C10.5246 31.9053 13.5833 30 17.1508 30C20.8845 30 24.061 32.087 25.2382 35H34.3015V14.575ZM20.0092 37.5C20.0092 36.1193 18.7295 35 17.1508 35C15.5721 35 14.2923 36.1193 14.2923 37.5C14.2923 38.8807 15.5721 40 17.1508 40C18.7295 40 20.0092 38.8807 20.0092 37.5ZM45.7354 37.5C45.7354 36.1193 47.0151 35 48.5938 35C50.1726 35 51.4523 36.1193 51.4523 37.5C51.4523 38.8807 50.1726 40 48.5938 40C47.0151 40 45.7354 38.8807 45.7354 37.5Z" fill="#D9D9D9"/>
</g>
<defs>
<clipPath id="clip0_92_6">
<rect width="62" height="45" fill="white"/>
</clipPath>
</defs>
</svg>
