<svg width="133" height="54" viewBox="0 0 133 54" fill="none" xmlns="http://www.w3.org/2000/svg">
<path d="M66.7607 20.6179C68.2141 20.6179 69.3541 20.9179 70.1807 21.5179C71.0207 22.1045 71.4407 23.0245 71.4407 24.2779C71.4407 25.0379 71.2674 25.6979 70.9207 26.2579C70.5741 26.8179 70.0874 27.2579 69.4607 27.5779C68.8474 27.8979 68.1207 28.0779 67.2807 28.1179L67.0007 27.1179C67.9741 27.1445 68.8474 27.3179 69.6207 27.6379C70.3941 27.9579 71.0074 28.4045 71.4607 28.9779C71.9141 29.5512 72.1407 30.2312 72.1407 31.0179C72.1407 31.7379 72.0074 32.3579 71.7407 32.8779C71.4741 33.3845 71.1141 33.8045 70.6607 34.1379C70.2074 34.4579 69.6941 34.6979 69.1207 34.8579C68.5474 35.0045 67.9541 35.0779 67.3407 35.0779H63.0407V20.6179H66.7607ZM67.1607 26.9579C67.9607 26.9579 68.5407 26.7379 68.9007 26.2979C69.2607 25.8445 69.4407 25.2979 69.4407 24.6579C69.4407 23.8979 69.2074 23.3445 68.7407 22.9979C68.2741 22.6512 67.6474 22.4779 66.8607 22.4779H64.9807V26.9579H67.1607ZM67.2407 33.2779C67.7741 33.2779 68.2607 33.1979 68.7007 33.0379C69.1541 32.8779 69.5074 32.6312 69.7607 32.2979C70.0274 31.9645 70.1607 31.5445 70.1607 31.0379C70.1607 30.4779 70.0074 30.0379 69.7007 29.7179C69.4074 29.3979 69.0274 29.1712 68.5607 29.0379C68.0941 28.8912 67.6141 28.8179 67.1207 28.8179H64.9807V33.2779H67.2407ZM74.944 19.5979H76.804V35.0779H74.944V19.5979ZM82.6421 35.3979C81.8955 35.3979 81.2755 35.1712 80.7821 34.7179C80.3021 34.2512 80.0488 33.6512 80.0221 32.9179V26.7979H81.8821V32.2579C81.9088 32.7112 82.0355 33.0779 82.2621 33.3579C82.5021 33.6379 82.8755 33.7845 83.3821 33.7979C83.8488 33.7979 84.2621 33.6645 84.6221 33.3979C84.9955 33.1179 85.2955 32.7445 85.5221 32.2779C85.7488 31.7979 85.8621 31.2579 85.8621 30.6579V26.7979H87.7221V35.0779H86.0221L85.8621 33.0379L85.9621 33.3979C85.8021 33.7845 85.5555 34.1312 85.2221 34.4379C84.9021 34.7312 84.5221 34.9645 84.0821 35.1379C83.6421 35.3112 83.1621 35.3979 82.6421 35.3979ZM94.7801 35.2779C93.8334 35.2779 93.0201 35.0912 92.3401 34.7179C91.6601 34.3312 91.1334 33.8112 90.7601 33.1579C90.4001 32.4912 90.2201 31.7312 90.2201 30.8779C90.2201 30.0645 90.4268 29.3245 90.8401 28.6579C91.2534 27.9912 91.8068 27.4579 92.5001 27.0579C93.1934 26.6579 93.9668 26.4579 94.8201 26.4579C95.9134 26.4579 96.8201 26.7779 97.5401 27.4179C98.2601 28.0579 98.7468 28.9379 99.0001 30.0579L92.1801 32.4579L91.7401 31.3579L97.3401 29.3179L96.9401 29.5779C96.7801 29.1379 96.5134 28.7579 96.1401 28.4379C95.7668 28.1045 95.2801 27.9379 94.6801 27.9379C94.1734 27.9379 93.7201 28.0645 93.3201 28.3179C92.9201 28.5579 92.6068 28.8912 92.3801 29.3179C92.1534 29.7445 92.0401 30.2312 92.0401 30.7779C92.0401 31.3512 92.1601 31.8579 92.4001 32.2979C92.6401 32.7245 92.9668 33.0645 93.3801 33.3179C93.8068 33.5579 94.2868 33.6779 94.8201 33.6779C95.1801 33.6779 95.5268 33.6112 95.8601 33.4779C96.2068 33.3445 96.5268 33.1712 96.8201 32.9579L97.6801 34.3379C97.2668 34.6179 96.8001 34.8445 96.2801 35.0179C95.7734 35.1912 95.2734 35.2779 94.7801 35.2779ZM105.511 20.6179C106.964 20.6179 108.104 20.9179 108.931 21.5179C109.771 22.1045 110.191 23.0245 110.191 24.2779C110.191 25.0379 110.017 25.6979 109.671 26.2579C109.324 26.8179 108.837 27.2579 108.211 27.5779C107.597 27.8979 106.871 28.0779 106.031 28.1179L105.751 27.1179C106.724 27.1445 107.597 27.3179 108.371 27.6379C109.144 27.9579 109.757 28.4045 110.211 28.9779C110.664 29.5512 110.891 30.2312 110.891 31.0179C110.891 31.7379 110.757 32.3579 110.491 32.8779C110.224 33.3845 109.864 33.8045 109.411 34.1379C108.957 34.4579 108.444 34.6979 107.871 34.8579C107.297 35.0045 106.704 35.0779 106.091 35.0779H101.791V20.6179H105.511ZM105.911 26.9579C106.711 26.9579 107.291 26.7379 107.651 26.2979C108.011 25.8445 108.191 25.2979 108.191 24.6579C108.191 23.8979 107.957 23.3445 107.491 22.9979C107.024 22.6512 106.397 22.4779 105.611 22.4779H103.731V26.9579H105.911ZM105.991 33.2779C106.524 33.2779 107.011 33.1979 107.451 33.0379C107.904 32.8779 108.257 32.6312 108.511 32.2979C108.777 31.9645 108.911 31.5445 108.911 31.0379C108.911 30.4779 108.757 30.0379 108.451 29.7179C108.157 29.3979 107.777 29.1712 107.311 29.0379C106.844 28.8912 106.364 28.8179 105.871 28.8179H103.731V33.2779H105.991ZM112.974 30.8579C112.974 30.0312 113.167 29.2845 113.554 28.6179C113.954 27.9512 114.501 27.4245 115.194 27.0379C115.887 26.6512 116.674 26.4579 117.554 26.4579C118.461 26.4579 119.254 26.6512 119.934 27.0379C120.614 27.4245 121.141 27.9512 121.514 28.6179C121.887 29.2845 122.074 30.0312 122.074 30.8579C122.074 31.6845 121.887 32.4379 121.514 33.1179C121.141 33.7845 120.607 34.3112 119.914 34.6979C119.234 35.0845 118.441 35.2779 117.534 35.2779C116.654 35.2779 115.867 35.0979 115.174 34.7379C114.494 34.3645 113.954 33.8512 113.554 33.1979C113.167 32.5312 112.974 31.7512 112.974 30.8579ZM114.834 30.8779C114.834 31.4112 114.954 31.8979 115.194 32.3379C115.434 32.7645 115.754 33.1045 116.154 33.3579C116.567 33.6112 117.021 33.7379 117.514 33.7379C118.034 33.7379 118.494 33.6112 118.894 33.3579C119.307 33.1045 119.627 32.7645 119.854 32.3379C120.081 31.8979 120.194 31.4112 120.194 30.8779C120.194 30.3445 120.081 29.8645 119.854 29.4379C119.627 28.9979 119.307 28.6512 118.894 28.3979C118.494 28.1312 118.034 27.9979 117.514 27.9979C117.007 27.9979 116.547 28.1312 116.134 28.3979C115.734 28.6645 115.414 29.0179 115.174 29.4579C114.947 29.8845 114.834 30.3579 114.834 30.8779ZM127.517 29.8779L129.497 26.7979H131.377L128.197 31.2379L127.517 29.8779ZM131.697 35.0779H129.457L123.157 26.7979H125.457L131.697 35.0779ZM127.317 31.9979L125.137 35.0779H123.257L126.417 30.7579L127.317 31.9979Z" fill="white"/>
<g clip-path="url(#clip0_4_11)">
<path fill-rule="evenodd" clip-rule="evenodd" d="M4.34077 -0.0630866H3.22473V-0.0124038H2.97111V0.0383196H2.76817V0.0890025H2.61599V0.139685H2.41305V0.190409H2.36238V0.241092H2.21019V0.291775H2.05801V0.342498H2.00725V0.393181H1.90583V0.443864H1.80432V0.494587H1.75364V0.54527H1.65213V0.595953H1.60146V0.646676H1.5507V0.697359H1.44928V0.748042H1.39852V0.798765H1.34776V0.849448H1.29709V0.900131H1.19558V0.950855H1.14491V1.00154H1.09415V1.05222H1.0434V1.10294H0.941969V1.15363H0.891214V1.25503H0.84054V1.30572H0.73903V1.40712H0.688356V1.4578H0.637601V1.50849H0.586846V1.55921H0.536172V1.66058H0.485417V1.7113H0.434662V1.76198H0.383988V1.86339H0.333233V1.91407H0.282478V2.01548H0.231805V2.11684H0.18105V2.21825H0.130295V2.31966H0.079621V2.47175H0.028866V2.57311H-0.0218892V2.67452H-0.0725628V2.77588H-0.123318V2.92797H-0.174073V7.69346H-0.0725628V7.64274H28.6394V7.69346H30.2119V7.74414H31.0236V7.79483H31.5309V7.84555H31.9367V7.89623H32.2411V7.94692H32.5454V7.99764H32.7991V8.04832H33.0527V8.099H33.3571V8.14973H33.5093V8.20041H33.7629V8.25109H33.9151V8.30182H34.0673V8.3525H34.2702V8.40318H34.4224V8.45391H34.6253V8.50459H34.7268V8.55527H34.9296V8.606H35.0818V8.65668H35.234V8.70736H35.3355V8.75808H35.4877V8.80877H35.5891V8.85945H35.7413V8.91017H35.8427V8.96086H35.9442V9.01154H36.0964V9.06226H36.1978V9.11295H36.2993V9.16363H36.4008V9.21435H36.553V9.26503H36.6544V9.31572H36.7558V9.36644H36.8573V9.41712H36.9588V9.46781H37.0602V9.51853H37.111V9.56921H37.2124V9.6199H37.3139V9.67062H37.4153V9.7213H37.5167V9.77199H37.5675V9.82271H37.6689V9.87339H37.7197V9.92407H37.8211V9.9748H37.8719V10.0255H37.9733V10.0762H38.0241V10.1269H38.1255V10.1776H38.1762V10.2283H38.227V10.279H38.3284V10.3297H38.3792V10.3803H38.4299V10.4311H38.5314V10.4817H38.582V10.5324H38.6328V10.5832H38.7342V10.6338H38.785V10.6845H38.8357V10.7352H38.8864V10.7859H38.9372V10.8366H39.0386V10.8873H39.0893V10.938H39.1401V10.9887H39.1908V11.0394H39.2415V11.0901H39.2923V11.1408H39.343V11.1915H39.3937V11.2422H39.4445V11.2929H39.4951V11.3436H39.5459V11.3943H39.5966V11.445H39.6981V11.4956H39.7488V11.5971H39.7995V11.6477H39.8503V11.6985H39.901V11.7491H39.9517V11.7998H40.0024V11.8506H40.0532V11.9012H40.1039V11.9519H40.1546V12.0026H40.2054V12.104H40.2561V12.1547H40.3068V12.2054H40.3576V12.2561H40.4082V12.3575H40.459V12.4082H40.5098V12.4589H40.5604V12.5603H40.6112V12.611H40.6619V12.6617H40.7126V12.7631H40.7634V12.8138H40.8141V12.9152H40.8648V12.9659H40.9155V13.0165H40.9663V13.1179H41.017V13.2194H41.0677V13.27H41.1185V13.3714H41.1692V13.4221H41.2199V13.5235H41.2707V13.6249H41.3213V13.7263H41.3721V13.8277H41.4229V13.9291H41.4735V14.0305H41.5243V14.1319H41.575V14.2333H41.6257V14.3347H41.6765V14.4867H41.7272V14.6388H41.7779V14.7402H41.8286V14.8923H41.8793V15.0444H41.9301V15.1458H41.9808V15.3486H42.0315V15.45H42.0823V15.6527H42.133V15.8556H42.1837V16.0583H42.2344V16.2611H42.2852V16.5146H42.3359V16.6667H42.3866V16.8695H42.4374V17.275H42.4881V17.4778H42.5388V17.8834H42.5896V18.2383H42.6402V18.6945H42.691V20.114H42.6402V20.5703H42.5896V20.9252H42.5388V21.1279H42.4881V21.3814H42.4374V21.5335H42.3866V21.7363H42.3359V21.9391H42.2852V22.0912H42.2344V22.2433H42.1837V22.3954H42.133V22.5475H42.0823V22.6996H42.0315V22.8009H41.9808V22.9023H41.9301V23.0037H41.8793V23.1558H41.8286V23.2572H41.7779V23.3586H41.7272V23.46H41.6765V23.5614H41.6257V23.6121H41.575V23.7135H41.5243V23.8149H41.4735V23.8656H41.4229V23.967H41.3721V24.0684H41.3213V24.119H41.2707V24.2205H41.2199V24.2711H41.1692V24.3218H41.1185V24.4232H41.0677V24.4739H41.017V24.5246H40.9663V24.626H40.9155V24.6767H40.8648V24.7274H40.8141V24.7781H40.7634V24.8795H40.7126V24.9302H40.6619V24.9809H40.6112V25.0823H40.5604V25.133H40.5098V25.1837H40.459V25.2344H40.4082V25.2851H40.3576V25.3358H40.3068V25.3864H40.2561V25.4372H40.1546V25.4879H40.1039V25.5385H40.0532V25.5893H40.0024V25.6399H39.9517V25.6906H39.901V25.7413H39.8503V25.792H39.7995V25.8427H39.6981V25.8934H39.6473V25.9441H39.5966V25.9948H39.5459V26.0455H39.4951V26.0962H39.4445V26.2483H39.5459V26.299H39.5966V26.3497H39.6473V26.4004H39.6981V26.4511H39.7995V26.5018H39.8503V26.5525H39.901V26.6032H39.9517V26.6539H40.0532V26.7046H40.1039V26.7552H40.1546V26.806H40.2054V26.8567H40.3068V26.9073H40.3576V27.0087H40.459V27.0594H40.5098V27.1102H40.5604V27.1608H40.6112V27.2115H40.6619V27.2622H40.7126V27.3129H40.7634V27.3636H40.8141V27.4143H40.8648V27.465H40.9155V27.5157H40.9663V27.5664H41.017V27.6678H41.0677V27.7185H41.1185V27.7692H41.1692V27.8199H41.2199V27.8706H41.2707V27.9213H41.3213V28.0227H41.3721V28.0734H41.4229V28.1241H41.4735V28.2255H41.5243V28.2761H41.575V28.3269H41.6257V28.3775H41.6765V28.4282H41.7272V28.5296H41.7779V28.5803H41.8286V28.6817H41.8793V28.7324H41.9301V28.8338H41.9808V28.8845H42.0315V28.9859H42.0823V29.0873H42.133V29.138H42.1837V29.2394H42.2344V29.3408H42.2852V29.4421H42.3359V29.4929H42.3866V29.5942H42.4374V29.6957H42.4881V29.797H42.5388V29.8478H42.5896V29.9491H42.6402V30.0505H42.691V30.1519H42.7417V30.2533H42.7924V30.3547H42.8432V30.5068H42.8939V30.6082H42.9446V30.7096H42.9954V30.8617H43.0461V30.963H43.0968V31.1151H43.1475V31.2672H43.1983V31.4193H43.249V31.5207H43.2997V31.7235H43.3505V31.8756H43.4012V32.0784H43.4519V32.2305H43.5027V32.3825H43.5533V32.636H43.6041V32.9402H43.6549V33.2444H43.7055V33.3965H43.7563V33.8527H43.807V35.323H43.7563V35.6778H43.7055V36.2355H43.6549V36.5397H43.6041V36.8439H43.5533V37.148H43.5027V37.3508H43.4519V37.5536H43.4012V37.7564H43.3505V37.9591H43.2997V38.1112H43.249V38.314H43.1983V38.4661H43.1475V38.6182H43.0968V38.7703H43.0461V38.9224H42.9954V39.0238H42.9446V39.1758H42.8939V39.3279H42.8432V39.4294H42.7924V39.5307H42.7417V39.6321H42.691V39.7336H42.6402V39.8349H42.5896V39.9363H42.5388V40.0377H42.4881V40.1391H42.4374V40.2405H42.3866V40.2912H42.3359V40.3925H42.2852V40.494H42.2344V40.5954H42.1837V40.6461H42.133V40.7475H42.0823V40.8488H42.0315V40.8995H41.9808V40.9503H41.9301V41.0516H41.8793V41.1024H41.8286V41.2037H41.7779V41.2544H41.7272V41.3558H41.6765V41.4065H41.6257V41.4572H41.575V41.5586H41.5243V41.6093H41.4735V41.66H41.4229V41.7107H41.3721V41.8121H41.3213V41.8628H41.2707V41.9134H41.2199V41.9642H41.1692V42.0149H41.1185V42.0655H41.0677V42.1163H41.017V42.167H40.9663V42.2683H40.9155V42.3191H40.8648V42.3697H40.8141V42.4204H40.7634V42.4712H40.7126V42.5218H40.6619V42.5725H40.6112V42.6232H40.5604V42.6739H40.459V42.7246H40.4082V42.7753H40.3576V42.826H40.3068V42.8767H40.2561V42.9274H40.2054V42.9781H40.1546V43.0288H40.1039V43.0794H40.0024V43.1302H39.9517V43.1809H39.901V43.2315H39.8503V43.2822H39.7488V43.333H39.6981V43.3836H39.6473V43.4343H39.5459V43.4851H39.4951V43.5357H39.4445V43.5864H39.343V43.6371H39.2923V43.6878H39.1908V43.7385H39.1401V43.7892H39.0893V43.8399H38.9879V43.8906H38.9372V43.9413H38.8357V43.992H38.785V44.0427H38.6835V44.0934H38.582V44.1441H38.5314V44.1948H38.4299V44.2455H38.3284V44.2961H38.227V44.3469H38.1255V44.3976H38.0241V44.4482H37.9226V44.499H37.8211V44.5497H37.7197V44.6003H37.5675V44.651H37.4661V44.7018H37.3646V44.7524H37.2124V44.8031H37.111V44.8539H36.9588V44.9045H36.8066V44.9552H36.6544V45.0059H36.553V45.0566H36.4008V45.1073H36.2486V45.158H36.0964V45.2087H35.9442V45.2594H35.7921V45.3101H35.6399V45.3608H35.4877V45.4115H35.2847V45.4622H35.0818V45.5129H34.8282V45.5636H34.676V45.6143H34.4731V45.6649H34.2702V45.7157H34.0673V45.7664H33.8643V45.817H33.5093V45.8678H33.2556V45.9185H32.7991V45.9691H32.444V46.0198H32.1396V46.0706H31.7845V46.1212H31.2265V46.1719H30.567V46.2227H29.6032V46.2733H26.1537V46.2227H26.103V46.1212H26.1537V37.3001H26.7625V37.3508H29.2988V37.3001H30.2627V37.2494H30.5163V37.1987H30.7192V37.148H31.0236V37.0973H31.2265V37.0466H31.3787V36.9959H31.5309V36.9452H31.6831V36.8945H31.8859V36.8439H32.0381V36.7931H32.1903V36.7424H32.2918V36.6918H32.3933V36.641H32.4947V36.5903H32.5454V36.5397H32.6469V36.489H32.6976V36.4382H32.7991V36.3876H32.8498V36.3369H32.9512V36.2861H33.002V36.2355H33.0527V36.1848H33.1034V36.1341H33.1542V36.0834H33.2049V36.0327H33.2556V35.982H33.3064V35.9313H33.3571V35.8806H33.4078V35.8299H33.4585V35.7792H33.5093V35.7285H33.56V35.6271H33.6107V35.5764H33.6615V35.4751H33.7122V35.4243H33.7629V35.3736H33.8137V35.2722H33.8643V35.1709H33.9151V35.0694H33.9658V34.816H34.0165V34.7146H34.0673V34.4611H34.118V33.4979H34.0673V33.2951H34.0165V33.0923H33.9658V32.8895H33.9151V32.7374H33.8643V32.636H33.8137V32.5346H33.7629V32.4333H33.7122V32.3318H33.6615V32.2812H33.6107V32.2305H33.56V32.1291H33.5093V32.0784H33.4585V32.0276H33.4078V31.977H33.3571V31.9263H33.3064V31.8249H33.2049V31.7742H33.1542V31.7235H33.1034V31.6728H33.0527V31.6221H33.002V31.5714H32.9512V31.5207H32.8498V31.47H32.7991V31.4193H32.6976V31.3686H32.6469V31.3179H32.5454V31.2672H32.444V31.2166H32.3425V31.1658H32.1903V31.1151H32.0381V31.0645H31.9367V31.0137H31.6323V30.963H31.3787V30.9124H31.125V30.8617H30.6685V30.8109H30.2119V30.7603H19.3054V46.2227H19.2547V46.2733H9.76863V46.2227H9.71787V22.0912H28.7916V22.0405H30.0597V21.9898H30.3134V21.9391H30.8207V21.8884H31.0744V21.8377H31.2265V21.787H31.3787V21.7363H31.5816V21.6856H31.6831V21.6349H31.7845V21.5842H31.8859V21.5335H31.9875V21.4829H32.0889V21.4321H32.1903V21.3814H32.2411V21.3308H32.3425V21.28H32.3933V21.2294H32.444V21.1787H32.4947V21.1279H32.5454V21.0773H32.5962V21.0266H32.6469V20.9759H32.6976V20.9252H32.7484V20.8238H32.7991V20.7224H32.8498V20.621H32.9006V20.4689H32.9512V20.2661H33.002V20.114H33.0527V18.9987H33.002V18.5932H32.9512V18.4411H32.9006V18.2383H32.8498V18.0355H32.7991V17.9341H32.7484V17.8327H32.6976V17.7313H32.6469V17.6299H32.5962V17.5792H32.5454V17.5285H32.4947V17.4271H32.444V17.3764H32.3933V17.3257H32.3425V17.275H32.2918V17.2244H32.1903V17.1736H32.1396V17.1229H32.0889V17.0723H31.9875V17.0215H31.8859V16.9709H31.7845V16.9202H31.6831V16.8695H31.5309V16.8188H31.3787V16.7681H31.1758V16.7174H30.9728V16.6667H30.7192V16.616H30.2627V16.5653H29.8061V16.5146H-0.174073V50.2276H-0.224747V50.8867H-0.174073V50.9374H-0.123318V51.0388H-0.0725628V51.1909H-0.0218892V51.2922H0.028866V51.4443H0.079621V51.5458H0.130295V51.6471H0.18105V51.7485H0.231805V51.7992H0.282478V51.9006H0.333233V51.9513H0.383988V52.0527H0.434662V52.1034H0.485417V52.2048H0.536172V52.2555H0.586846V52.3569H0.637601V52.4076H0.688356V52.509H0.73903V52.5597H0.789785V52.6104H0.84054V52.661H0.891214V52.7118H0.941969V52.7625H0.992724V52.8131H1.0434V52.8639H1.09415V52.9146H1.14491V52.9652H1.24634V53.0159H1.29709V53.0667H1.34776V53.1173H1.39852V53.168H1.49995V53.2188H1.5507V53.2694H1.65213V53.3201H1.75364V53.3709H1.85507V53.4215H1.9565V53.4722H2.05801V53.5229H2.15944V53.5736H2.26087V53.6243H2.36238V53.675H2.51456V53.7257H2.61599V53.7764H2.76817V53.8271H2.8696V53.8778H3.02179V53.9285H3.22473V53.9792H3.47834V54.0299H3.73203V54.0806H49.1841V54.0299H49.7929V53.9792H50.0466V53.9285H50.3509V53.8778H50.5031V53.8271H50.706V53.7764H50.8582V53.7257H51.0611V53.675H51.1625V53.6243H51.264V53.5736H51.4162V53.5229H51.5177V53.4722H51.6191V53.4215H51.6698V53.3709H51.7713V53.3201H51.8728V53.2694H51.9235V53.2188H52.025V53.168H52.0756V53.1173H52.1264V53.0667H52.1771V53.0159H52.2786V52.9652H52.3293V52.9146H52.38V52.8639H52.4308V52.8131H52.4815V52.7625H52.5322V52.7118H52.5829V52.661H52.6337V52.5597H52.6844V52.509H52.7351V52.4583H52.7859V52.4076H52.8366V52.3569H52.8873V52.2555H52.9381V52.2048H52.9887V52.1034H53.0395V52.0527H53.0902V51.9513H53.1409V51.9006H53.1917V51.7992H53.2424V51.6979H53.2931V51.5964H53.3439V51.4951H53.3946V51.3937H53.4453V51.2416H53.496V51.1402H53.5468V50.9881H53.5975V50.836H53.6482V50.6332H53.699V49.8221H53.7497V4.44886H53.699V3.23215H53.6482V2.87729H53.5975V2.7252H53.5468V2.67452H53.496V2.57311H53.4453V2.47175H53.3946V2.31966H53.3439V2.21825H53.2931V2.16757H53.2424V2.01548H53.1917V1.96476H53.1409V1.86339H53.0902V1.81267H53.0395V1.7113H52.9887V1.60989H52.9381V1.50849H52.8873V1.4578H52.8366V1.40712H52.7859V1.3564H52.7351V1.30572H52.6844V1.25503H52.6337V1.20431H52.5829V1.15363H52.5322V1.10294H52.4815V1.05222H52.4308V1.00154H52.38V0.950855H52.3293V0.900131H52.2786V0.849448H52.2278V0.798765H52.1771V0.748042H52.0756V0.697359H52.025V0.646676H51.9742V0.595953H51.8728V0.54527H51.822V0.494587H51.7206V0.443864H51.6191V0.393181H51.5684V0.342498H51.4669V0.291775H51.3147V0.241092H51.2133V0.190409H51.0611V0.139685H50.8582V0.0890025H50.6553V0.0383196H50.5031V-0.0124038H50.3002V-0.0630866H49.6915V-0.11377H4.34077V-0.0630866Z" fill="white"/>
</g>
<defs>
<clipPath id="clip0_4_11">
<rect width="54.0336" height="54" fill="white"/>
</clipPath>
</defs>
</svg>
