<svg width="25" height="26" viewBox="0 0 25 26" fill="none" xmlns="http://www.w3.org/2000/svg">
<g clip-path="url(#clip0_750_250)">
<path d="M9.44922 22.5347C9.70493 24.0322 10.9882 25.119 12.5005 25.119C14.0132 25.119 15.2968 24.0322 15.5525 22.5347L15.5682 22.4435H9.43359L9.44922 22.5347Z" fill="white"/>
<path d="M22.939 18.253C22.6887 18.0015 22.4337 17.7889 22.187 17.5831C21.1493 16.7177 20.253 15.9704 20.253 12.8674V10.4061C20.253 6.78692 17.7208 3.61118 14.2173 2.81494C14.3578 2.53837 14.429 2.24769 14.429 1.94921C14.429 0.881509 13.5638 0.0126953 12.5002 0.0126953C11.4369 0.0126953 10.5719 0.881509 10.5719 1.94921C10.5719 2.24789 10.643 2.53852 10.7835 2.81494C7.27983 3.61118 4.74785 6.78692 4.74785 10.4061V12.8674C4.74785 15.9704 3.85156 16.7178 2.81387 17.5831C2.56719 17.7889 2.31211 18.0015 2.06182 18.253L2.03906 18.2758V20.7177H22.9617V18.2758L22.939 18.253Z" fill="white"/>
</g>
<defs>
<clipPath id="clip0_750_250">
<rect width="25" height="25.1063" fill="white" transform="translate(0 0.0126953)"/>
</clipPath>
</defs>
</svg>
