<svg width="28" height="26" viewBox="0 0 28 26" fill="none" xmlns="http://www.w3.org/2000/svg">
<path d="M24.0913 5.26899L13.9012 14.1454L3.71103 5.26899M2.50875 2.33069C2.16403 2.33069 1.83343 2.49277 1.58968 2.78127C1.34592 3.06977 1.20898 3.46106 1.20898 3.86907V21.2604C1.20898 21.6684 1.34592 22.0597 1.58968 22.3482C1.83343 22.6367 2.16403 22.7987 2.50875 22.7987H25.2936C25.6383 22.7987 25.9689 22.6367 26.2127 22.3482C26.4564 22.0597 26.5933 21.6684 26.5933 21.2604V3.84599C26.5933 3.43799 26.4564 3.0467 26.2127 2.7582C25.9689 2.46969 25.6383 2.30762 25.2936 2.30762H2.50875V2.33069Z" stroke="white" stroke-width="1.92" stroke-linecap="round" stroke-linejoin="round"/>
</svg>
