<svg width="25" height="26" viewBox="0 0 25 26" fill="none" xmlns="http://www.w3.org/2000/svg">
<g clip-path="url(#clip0_750_260)">
<path d="M11.4024 1.55855V10.3678C11.4025 10.5124 11.3742 10.6556 11.3191 10.7892C11.264 10.9229 11.1833 11.0443 11.0814 11.1466C10.9796 11.2488 10.8587 11.33 10.7256 11.3853C10.5926 11.4406 10.4499 11.469 10.3059 11.4689H1.53399C1.38997 11.469 1.24735 11.4406 1.11428 11.3853C0.981214 11.33 0.860305 11.2488 0.75847 11.1466C0.656634 11.0443 0.575871 10.9229 0.520797 10.7892C0.465722 10.6556 0.437417 10.5124 0.4375 10.3678V1.55855C0.437417 1.41392 0.465722 1.27069 0.520797 1.13706C0.575871 1.00342 0.656634 0.881999 0.75847 0.779731C0.860305 0.677463 0.981214 0.596357 1.11428 0.541048C1.24735 0.48574 1.38997 0.457314 1.53399 0.457398H10.3059C10.4499 0.457314 10.5926 0.48574 10.7256 0.541048C10.8587 0.596357 10.9796 0.677464 11.0814 0.779732C11.1833 0.882 11.264 1.00342 11.3191 1.13706C11.3742 1.27069 11.4025 1.41392 11.4024 1.55855ZM23.4638 0.457398H14.6919C14.5479 0.457314 14.4052 0.48574 14.2722 0.541048C14.1391 0.596357 14.0182 0.677463 13.9164 0.779731C13.8145 0.881999 13.7338 1.00342 13.6787 1.13706C13.6236 1.27069 13.5953 1.41392 13.5954 1.55855V10.3678C13.5953 10.5124 13.6236 10.6556 13.6787 10.7892C13.7338 10.9229 13.8145 11.0443 13.9164 11.1466C14.0182 11.2488 14.1391 11.33 14.2722 11.3853C14.4052 11.4406 14.5479 11.469 14.6919 11.4689H23.4638C23.6078 11.469 23.7504 11.4406 23.8835 11.3853C24.0166 11.33 24.1375 11.2488 24.2393 11.1466C24.3412 11.0443 24.4219 10.9229 24.477 10.7892C24.5321 10.6556 24.5604 10.5124 24.5603 10.3678V1.55855C24.5604 1.41392 24.5321 1.27069 24.477 1.13706C24.4219 1.00342 24.3412 0.882 24.2393 0.779732C24.1375 0.677464 24.0166 0.596357 23.8835 0.541048C23.7504 0.48574 23.6078 0.457314 23.4638 0.457398ZM10.3059 13.6712H1.53399C1.38997 13.6711 1.24735 13.6996 1.11428 13.7549C0.981214 13.8102 0.860305 13.8913 0.75847 13.9935C0.656634 14.0958 0.575871 14.2172 0.520797 14.3509C0.465722 14.4845 0.437417 14.6277 0.4375 14.7724V23.5816C0.437417 23.7262 0.465722 23.8694 0.520797 24.0031C0.575871 24.1367 0.656634 24.2581 0.75847 24.3604C0.860305 24.4627 0.981214 24.5438 1.11428 24.5991C1.24735 24.6544 1.38997 24.6828 1.53399 24.6827H10.3059C10.4499 24.6828 10.5926 24.6544 10.7256 24.5991C10.8587 24.5438 10.9796 24.4627 11.0814 24.3604C11.1833 24.2581 11.264 24.1367 11.3191 24.0031C11.3742 23.8694 11.4025 23.7262 11.4024 23.5816V14.7724C11.4025 14.6277 11.3742 14.4845 11.3191 14.3509C11.264 14.2172 11.1833 14.0958 11.0814 13.9935C10.9796 13.8913 10.8587 13.8102 10.7256 13.7549C10.5926 13.6996 10.4499 13.6711 10.3059 13.6712ZM23.4638 13.6712H14.6919C14.5479 13.6711 14.4052 13.6996 14.2722 13.7549C14.1391 13.8102 14.0182 13.8913 13.9164 13.9935C13.8145 14.0958 13.7338 14.2172 13.6787 14.3509C13.6236 14.4845 13.5953 14.6277 13.5954 14.7724V23.5816C13.5953 23.7262 13.6236 23.8694 13.6787 24.0031C13.7338 24.1367 13.8145 24.2581 13.9164 24.3604C14.0182 24.4627 14.1391 24.5438 14.2722 24.5991C14.4052 24.6544 14.5479 24.6828 14.6919 24.6827H23.4638C23.6078 24.6828 23.7504 24.6544 23.8835 24.5991C24.0166 24.5438 24.1375 24.4627 24.2393 24.3604C24.3412 24.2581 24.4219 24.1367 24.477 24.0031C24.5321 23.8694 24.5604 23.7262 24.5603 23.5816V14.7724C24.5604 14.6277 24.5321 14.4845 24.477 14.3509C24.4219 14.2172 24.3412 14.0958 24.2393 13.9935C24.1375 13.8913 24.0166 13.8102 23.8835 13.7549C23.7504 13.6996 23.6078 13.6711 23.4638 13.6712Z" fill="white" stroke="white" stroke-width="0.000533333"/>
</g>
<defs>
<clipPath id="clip0_750_260">
<rect width="25" height="25.1063" fill="white" transform="translate(0 0.0169678)"/>
</clipPath>
</defs>
</svg>
