<svg width="40" height="40" viewBox="0 0 40 40" fill="none" xmlns="http://www.w3.org/2000/svg">
<path d="M15.0007 3H25.0007C33.334 3 36.6673 6.33333 36.6673 14.6667V24.6667C36.6673 33 33.334 36.3333 25.0007 36.3333H15.0007C6.66732 36.3333 3.33398 33 3.33398 24.6667V14.6667C3.33398 6.33333 6.66732 3 15.0007 3Z" stroke="#9E9E9E" stroke-width="4" stroke-linecap="round" stroke-linejoin="round"/>
<path d="M14.2832 25.1167L25.1831 14.2166" stroke="#9E9E9E" stroke-width="4" stroke-linecap="round" stroke-linejoin="round"/>
<path d="M14.968 16.9498C16.1002 16.9498 17.018 16.0321 17.018 14.8999C17.018 13.7677 16.1002 12.8499 14.968 12.8499C13.8358 12.8499 12.918 13.7677 12.918 14.8999C12.918 16.0321 13.8358 16.9498 14.968 16.9498Z" stroke="#9E9E9E" stroke-width="4" stroke-linecap="round" stroke-linejoin="round"/>
<path d="M25.8664 26.4832C26.9986 26.4832 27.9164 25.5653 27.9164 24.4332C27.9164 23.301 26.9986 22.3832 25.8664 22.3832C24.7342 22.3832 23.8164 23.301 23.8164 24.4332C23.8164 25.5653 24.7342 26.4832 25.8664 26.4832Z" stroke="#9E9E9E" stroke-width="4" stroke-linecap="round" stroke-linejoin="round"/>
</svg>
